<svg width="600" height="120" viewBox="0 0 600 120" xmlns="http://www.w3.org/2000/svg">
    <defs>
      <filter id="bgBlur"><feGaussianBlur stdDeviation="18" /></filter>
      <clipPath id="cardClip"><rect x="0" y="0" width="600" height="120" rx="12" /></clipPath>
    </defs>
    <g clip-path="url(#cardClip)">
      <image href="https://i.ytimg.com/vi/4NRXx6U8ABQ/hqdefault.jpg" x="-20" y="-20" width="640" height="160"
        preserveAspectRatio="xMidYMid slice" filter="url(#bgBlur)" />
      <rect x="0" y="0" width="600" height="120" fill="#000" opacity="0.45" />
    </g>
    <g transform="translate(28, 16)">
      <clipPath id="discClip"><circle cx="44" cy="44" r="43" /></clipPath>
    <radialGradient id="discGradient" cx="35%" cy="30%" r="75%">
      <stop offset="0%" stop-color="#2c2c2c" />
      <stop offset="100%" stop-color="#040404" />
    </radialGradient>
    <g clip-path="url(#discClip)">
      <circle cx="44" cy="44" r="43" fill="url(#discGradient)" />
      <g fill="none" stroke="#000" stroke-opacity="0.55" stroke-width="0.6">
        <circle cx="44" cy="44" r="39.99" />
<circle cx="44" cy="44" r="36.98" />
<circle cx="44" cy="44" r="33.97" />
<circle cx="44" cy="44" r="30.959999999999997" />
      </g>
    </g>
    <clipPath id="labelClip"><circle cx="44" cy="44" r="26.66" /></clipPath>
    <image href="https://i.ytimg.com/vi/4NRXx6U8ABQ/hqdefault.jpg" x="17.34" y="17.34"
      width="53.32" height="53.32" clip-path="url(#labelClip)"
      preserveAspectRatio="xMidYMid slice">
      <animateTransform attributeName="transform" type="rotate"
        from="0 44 44" to="360 44 44" dur="6s" repeatCount="indefinite" />
    </image>
    <circle cx="44" cy="44" r="26.66" fill="none" stroke="#000" stroke-opacity="0.6" stroke-width="1.5" />
    <circle cx="44" cy="44" r="2.15" fill="#05070a" />
    </g>
    <g transform="translate(134, 40)">
      <rect x="0" y="0" width="3" height="14" rx="1.5" fill="#7dd3fc">
        <animate attributeName="height" values="4.2;14;4.2" dur="1.1s" repeatCount="indefinite" />
        <animate attributeName="y" values="9.8;0;9.8" dur="1.1s" repeatCount="indefinite" />
      </rect>
<rect x="5.5" y="2.799999999999999" width="3" height="11.200000000000001" rx="1.5" fill="#7dd3fc">
        <animate attributeName="height" values="4.8999999999999995;11.200000000000001;4.8999999999999995" dur="0.9s" repeatCount="indefinite" />
        <animate attributeName="y" values="9.100000000000001;2.799999999999999;9.100000000000001" dur="0.9s" repeatCount="indefinite" />
      </rect>
<rect x="11" y="1.4000000000000004" width="3" height="12.6" rx="1.5" fill="#7dd3fc">
        <animate attributeName="height" values="7;12.6;7" dur="1.3s" repeatCount="indefinite" />
        <animate attributeName="y" values="7;1.4000000000000004;7" dur="1.3s" repeatCount="indefinite" />
      </rect>
<rect x="16.5" y="0" width="3" height="14" rx="1.5" fill="#7dd3fc">
        <animate attributeName="height" values="6.3;14;6.3" dur="1s" repeatCount="indefinite" />
        <animate attributeName="y" values="7.7;0;7.7" dur="1s" repeatCount="indefinite" />
      </rect>
<rect x="22" y="3.5" width="3" height="10.5" rx="1.5" fill="#7dd3fc">
        <animate attributeName="height" values="5.6000000000000005;10.5;5.6000000000000005" dur="1.2s" repeatCount="indefinite" />
        <animate attributeName="y" values="8.399999999999999;3.5;8.399999999999999" dur="1.2s" repeatCount="indefinite" />
      </rect>
      <text x="32" y="13" font-family="Poppins, sans-serif" font-size="10"
        font-weight="600" letter-spacing="1" fill="rgba(255,255,255,0.65)">NOW PLAYING</text>
    </g>
    <g transform="translate(134, 68)"><text x="0" y="0" font-family="Poppins, sans-serif" font-size="19" font-weight="700" fill="#fff">Blinding Lights</text></g>
    <g transform="translate(134, 88)"><text x="0" y="0" font-family="Poppins, sans-serif" font-size="14" font-weight="500" fill="rgba(255,255,255,0.75)">The Weeknd</text></g>
    <g transform="translate(500, 53)" fill="rgba(255,255,255,0.55)">
      <path d="M23.5 6.2a3 3 0 0 0-2.1-2.1C19.5 3.5 12 3.5 12 3.5s-7.5 0-9.4.6A3 3 0 0 0 .5 6.2 31 31 0 0 0 0 12a31 31 0 0 0 .5 5.8 3 3 0 0 0 2.1 2.1c1.9.6 9.4.6 9.4.6s7.5 0 9.4-.6a3 3 0 0 0 2.1-2.1A31 31 0 0 0 24 12a31 31 0 0 0-.5-5.8ZM9.5 15.5v-7l6.3 3.5-6.3 3.5Z" transform="scale(0.55)" />
      <text x="15" y="10" font-family="Poppins, sans-serif" font-size="11" font-weight="600">YT Music</text>
    </g>
  </svg>